<svg width="2147" height="512" viewBox="0 0 2147 512" fill="none" xmlns="http://www.w3.org/2000/svg">
<g clip-path="url(#clip0_899_1398)">
<path d="M512 256C512 114.615 397.385 0 256 0C114.615 0 0 114.615 0 256C0 397.385 114.615 512 256 512C397.385 512 512 397.385 512 256Z" fill="#0795FF"/>
<path d="M290.417 340.78C290.417 312.97 312.961 290.426 340.771 290.426C368.57 290.426 391.108 312.953 391.125 340.748V340.78V340.81C391.109 368.606 368.571 391.134 340.771 391.134C328.903 391.134 317.994 387.029 309.387 380.16C297.825 370.934 290.417 356.722 290.417 340.78Z" fill="white"/>
<path d="M290.417 255.98L391.124 255.991L391.125 340.746V340.808V341.391H290.417V310.392V255.98Z" fill="white"/>
<path fill-rule="evenodd" clip-rule="evenodd" d="M255.999 391.116C272.453 391.116 288.22 388.175 302.803 382.79C289.352 373.881 280.425 358.685 280.218 341.392V340.779V280.081C273.869 286.464 265.078 290.414 255.364 290.414C236.003 290.414 220.308 274.719 220.308 255.358C220.308 235.996 236.003 220.301 255.364 220.301C274.726 220.301 290.421 235.996 290.421 255.358C290.421 257.24 290.273 259.088 289.987 260.89C290.242 259.288 290.387 257.648 290.417 255.981V310.393V340.779V341.392C290.604 357.085 297.974 371.051 309.387 380.159C317.994 387.028 328.903 391.133 340.771 391.133C368.376 391.133 390.797 368.919 391.125 341.392V340.809V340.779V340.747L391.124 255.992C391.124 181.364 330.626 120.867 255.999 120.867C181.372 120.867 120.875 181.364 120.875 255.992C120.875 330.619 181.372 391.116 255.999 391.116Z" fill="white"/>
</g>
<path fill-rule="evenodd" clip-rule="evenodd" d="M684.881 153.402C706.597 153.402 726.462 158.572 744.158 169.115C761.651 179.284 775.527 193.309 785.667 211.005C794.92 226.761 800.035 244.184 801.147 263.065L801.381 355.782C801.381 364.137 798.497 371.699 792.732 377.747L792.166 378.327C786.109 384.384 778.368 387.162 770 387.162C761.628 387.162 753.944 384.394 747.753 378.615L747.45 378.333L747.168 378.03C744.281 374.937 742.145 371.471 740.73 367.733C738.405 369.483 736.001 371.153 733.515 372.739L733.452 372.779L733.389 372.818C716.662 383.2 697.848 388.302 677.28 388.302C656.712 388.302 637.898 383.2 621.172 372.818L621.109 372.779L621.047 372.739C604.605 362.251 591.573 348.195 582.019 330.772L581.964 330.672L581.91 330.57C572.554 312.709 568 292.776 568 271.042C568 249.131 573.015 229.061 583.262 211.129L583.297 211.066L583.333 211.005C593.407 193.852 606.874 180.143 623.642 170.05L625.274 169.085C643.189 158.576 663.155 153.402 684.881 153.402ZM684.881 211.603C674.323 211.603 664.973 214.21 656.548 219.348L656.511 219.37L656.475 219.393C648.262 224.32 641.61 231.208 636.498 240.341C631.762 248.995 629.24 259.122 629.24 271.042C629.24 282.603 631.718 292.742 636.48 301.708C641.561 310.55 648.213 317.491 656.505 322.708C664.918 327.6 674.288 330.103 684.881 330.103C695.8 330.102 705.129 327.565 713.208 322.737C721.505 317.527 728.019 310.607 732.851 301.801C737.645 292.812 740.141 282.643 740.141 271.042C740.141 259.115 737.616 248.983 732.875 240.326L732.847 240.274L732.819 240.222C727.968 231.151 721.472 224.304 713.286 219.393L713.193 219.336L713.101 219.278C705.029 214.234 695.742 211.603 684.881 211.603Z" fill="#0795FF"/>
<path fill-rule="evenodd" clip-rule="evenodd" d="M939.406 153.402C955.955 153.402 971.397 156.638 985.545 163.279C999.624 169.635 1012.07 179.201 1022.92 191.7C1028.22 197.758 1031.27 205.476 1029.55 214.058L1029.37 214.891C1027.53 222.704 1022.6 228.758 1016.35 233.271L1016.33 233.289L1016.3 233.307C1010.12 237.72 1002.93 239.337 995.461 238.02L995.127 237.961L994.798 237.883C988.04 236.293 982.19 232.756 977.281 227.848L977.155 227.722L977.033 227.592C966.942 216.883 954.675 211.603 939.406 211.603C928.789 211.603 919.849 213.998 912.229 218.5L911.495 218.942L911.399 219.001L911.302 219.059C903.687 223.55 897.632 229.826 893.091 238.176L892.656 238.99C888.148 247.598 885.666 258.152 885.666 271.042C885.666 283.008 888.083 293.179 892.604 301.854C897.433 310.635 903.937 317.537 912.217 322.737C920.226 327.523 929.789 330.103 941.307 330.103C949.231 330.103 955.673 329.197 960.821 327.632C966.226 325.813 971.101 323.12 975.508 319.515L975.539 319.489C981.037 315.023 987.429 312.029 994.597 311.526C1002 310.745 1008.94 312.842 1014.67 317.639C1014.7 317.658 1014.72 317.678 1014.74 317.697C1014.76 317.712 1014.78 317.726 1014.8 317.741C1020.88 322.791 1025.25 329.441 1026.18 337.66C1026.18 337.671 1026.19 337.682 1026.19 337.692C1026.19 337.707 1026.19 337.722 1026.19 337.737C1027.17 346.258 1023.86 353.659 1018.19 359.327L1018.04 359.48L1017.88 359.627C997.194 378.877 971.376 388.302 941.307 388.302C919.171 388.302 898.967 383.301 881.013 373.041L880.914 372.985L880.816 372.927C863.373 362.517 849.499 348.51 839.349 331.028L839.292 330.93L839.236 330.83C829.286 312.92 824.426 292.894 824.426 271.042C824.426 248.74 829.262 228.449 839.236 210.494L839.703 209.662C849.565 192.238 863.109 178.5 880.234 168.674C897.711 158.392 917.554 153.402 939.406 153.402Z" fill="#0795FF"/>
<path fill-rule="evenodd" clip-rule="evenodd" d="M1169.53 153.402C1191.61 153.402 1211.68 158.379 1229.39 168.632L1230.21 169.103C1247.44 179.016 1261 192.838 1270.77 210.368C1281.07 228.138 1286.03 248.492 1286.03 271.042C1286.03 293.344 1281.19 313.635 1271.22 331.59L1271.2 331.626L1271.18 331.661C1261.25 349.241 1247.43 363.195 1229.89 373.38L1229.77 373.452C1212.03 383.468 1191.83 388.302 1169.53 388.302C1147.23 388.302 1127.03 383.468 1109.29 373.452L1109.16 373.38C1091.65 363.212 1077.74 349.299 1067.57 331.788L1067.51 331.689L1067.46 331.59C1057.48 313.635 1052.65 293.344 1052.65 271.042C1052.65 248.519 1057.47 228.187 1067.5 210.423L1067.53 210.368C1077.54 192.846 1091.23 179.022 1108.47 169.102L1109.29 168.632C1127.02 158.366 1147.23 153.402 1169.53 153.402ZM1169.53 211.603C1158.63 211.603 1149.4 214.018 1141.5 218.565L1140.74 219.012C1132.56 223.923 1126.06 230.771 1121.21 239.842L1121.18 239.895L1121.15 239.946C1116.43 248.572 1113.89 258.821 1113.89 271.042C1113.89 283.263 1116.43 293.513 1121.15 302.139L1121.61 302.96C1126.39 311.384 1132.74 317.893 1140.74 322.692L1141.5 323.139C1149.4 327.686 1158.63 330.103 1169.53 330.103C1180.78 330.102 1190.25 327.528 1198.31 322.692L1199.08 322.226C1206.92 317.345 1212.99 310.782 1217.42 302.334L1217.47 302.235L1217.52 302.139C1222.25 293.513 1224.79 283.263 1224.79 271.042C1224.79 258.821 1222.25 248.572 1217.52 239.946L1217.44 239.798L1217.37 239.647C1212.92 230.958 1206.85 224.321 1199.07 219.476L1198.31 219.012C1190.25 214.176 1180.78 211.603 1169.53 211.603Z" fill="#0795FF"/>
<path fill-rule="evenodd" clip-rule="evenodd" d="M1683.49 153.402C1705.21 153.402 1725.07 158.572 1742.77 169.115C1760.26 179.284 1774.14 193.309 1784.28 211.005C1793.53 226.761 1798.65 244.184 1799.76 263.065L1799.99 355.782C1799.99 364.137 1797.11 371.699 1791.35 377.747L1790.78 378.327C1784.72 384.384 1776.98 387.162 1768.61 387.162C1760.24 387.162 1752.56 384.394 1746.37 378.615L1746.06 378.333L1745.78 378.03C1742.89 374.937 1740.76 371.471 1739.34 367.733C1737.02 369.483 1734.61 371.153 1732.13 372.739L1732.07 372.779L1732 372.818C1715.28 383.2 1696.46 388.302 1675.89 388.302C1655.33 388.302 1636.51 383.2 1619.79 372.818L1619.72 372.779L1619.66 372.739C1603.22 362.251 1590.19 348.195 1580.63 330.772L1580.58 330.672L1580.52 330.57C1571.17 312.709 1566.61 292.776 1566.61 271.042C1566.61 249.131 1571.63 229.061 1581.88 211.129L1581.91 211.066L1581.95 211.005C1592.02 193.852 1605.49 180.143 1622.25 170.05L1623.89 169.085C1641.8 158.576 1661.77 153.402 1683.49 153.402ZM1683.49 211.603C1672.94 211.603 1663.59 214.21 1655.16 219.348L1655.12 219.37L1655.09 219.393C1646.87 224.32 1640.22 231.208 1635.11 240.341C1630.38 248.995 1627.85 259.122 1627.85 271.042C1627.85 282.603 1630.33 292.742 1635.09 301.708C1640.17 310.55 1646.83 317.491 1655.12 322.708C1663.53 327.6 1672.9 330.103 1683.49 330.103C1694.41 330.102 1703.74 327.565 1711.82 322.737C1720.12 317.527 1726.63 310.607 1731.46 301.801C1736.26 292.812 1738.75 282.643 1738.75 271.042C1738.75 259.115 1736.23 248.983 1731.49 240.326L1731.46 240.274L1731.43 240.222C1726.58 231.151 1720.09 224.304 1711.9 219.393L1711.81 219.336L1711.71 219.278C1703.64 214.234 1694.35 211.603 1683.49 211.603Z" fill="#0795FF"/>
<path fill-rule="evenodd" clip-rule="evenodd" d="M2040.06 153.402C2061.6 153.402 2080.82 158.241 2097.21 168.444L2097.97 168.91C2113.82 178.73 2125.89 192.381 2134.08 209.568C2139.07 219.576 2142.53 230.389 2144.55 241.942L2145.51 248.362C2146.29 254.583 2146.68 261.006 2146.68 267.622C2146.68 275.499 2143.85 282.641 2138.23 288.268L2138.06 288.438L2137.88 288.6C2132.08 293.956 2124.86 296.342 2117.2 296.342H1988.56C1989.44 298.379 1990.43 300.348 1991.54 302.251L1992.03 303.091C1997.23 311.718 2004.27 318.55 2013.31 323.688L2014.17 324.167C2023.1 329.04 2033.53 331.622 2045.76 331.622C2052.15 331.622 2058.78 330.496 2065.72 328.12C2073.32 325.347 2078.84 322.437 2082.64 319.582L2082.69 319.544L2082.75 319.505C2088.31 315.423 2094.7 313.076 2101.67 313.005C2108.74 312.685 2115.4 314.689 2120.99 319.191L2121.53 319.642L2121.63 319.722L2121.72 319.804C2127.78 325.15 2132.13 332.132 2132.6 340.677L2132.64 341.544C2132.83 350.372 2128.48 357.5 2122 362.519L2122 362.52C2112.07 370.411 2099.98 376.578 2086.04 381.227L2086.04 381.226C2072.33 385.878 2058.89 388.302 2045.76 388.302C2023 388.302 2002.26 383.489 1983.83 373.568L1983.73 373.516L1983.64 373.461C1965.63 363.333 1951.3 349.448 1940.84 331.912L1940.78 331.814L1940.72 331.716C1930.45 313.739 1925.46 293.402 1925.46 271.042C1925.46 248.576 1930.13 228.291 1939.86 210.552L1939.88 210.523L1939.89 210.494C1949.79 192.674 1963.49 178.656 1980.89 168.674C1998.37 158.392 2018.21 153.402 2040.06 153.402ZM2040.06 210.082C2027.43 210.082 2017.29 212.83 2009.11 217.8C2001.02 222.877 1994.83 229.837 1990.47 238.971L1990.45 239.02L1990.42 239.068C1989.96 240.009 1989.53 240.968 1989.11 241.942H2084.58C2083.84 239.887 2083.02 237.913 2082.09 236.018L2082.07 235.965L2082.04 235.911C2078.12 227.644 2072.69 221.4 2065.77 216.851C2059.21 212.542 2050.85 210.082 2040.06 210.082Z" fill="#0795FF"/>
<path fill-rule="evenodd" clip-rule="evenodd" d="M1540.99 154.922C1551.26 154.922 1561.05 158.927 1566.16 169.155C1570.77 178.102 1569.66 188.17 1566.41 197.401L1510.25 365.887C1508.4 372.051 1504.63 377.053 1499.67 380.874L1499.43 381.058L1499.18 381.229C1493.73 385.004 1487.51 386.782 1480.95 386.782C1474.5 386.782 1468.46 384.928 1463.06 381.456L1462.81 381.298L1462.58 381.127C1457.24 377.314 1453.06 372.15 1451.17 365.539L1451.15 365.457L1425.15 269.292L1397.88 365.515L1397.87 365.527L1397.87 365.539C1395.98 372.15 1391.8 377.314 1386.47 381.127L1386.39 381.179L1386.32 381.229C1380.87 385.004 1374.65 386.782 1368.09 386.782C1361.64 386.782 1355.6 384.928 1350.2 381.456L1349.78 381.183L1349.37 380.874C1344.45 377.086 1340.67 372.216 1338.55 366.278L1338.51 366.158L1338.47 366.037L1282.09 196.923L1281.99 196.521C1279.65 187.444 1279.08 178.112 1282.55 169.865L1282.61 169.731L1282.67 169.598C1287.54 158.78 1297.8 154.922 1308.05 154.922C1315.17 154.922 1322.01 157.011 1327.56 161.918C1333.2 166.441 1336.7 173.095 1339.01 180.054L1339.24 180.745V180.747L1368.34 271.745L1396.1 177.956C1397.93 171.768 1401.21 166.265 1406.21 162.036C1412.01 156.853 1419.29 154.922 1426.61 154.922C1433.79 154.922 1440.81 156.907 1446.47 161.894C1451.82 166.145 1455.26 171.827 1456.85 178.38L1480.8 271.688L1509.8 180.756C1511.98 173.65 1515.44 167.115 1520.88 162.305C1526.58 157.261 1533.55 154.922 1540.99 154.922Z" fill="#0795FF"/>
<path fill-rule="evenodd" clip-rule="evenodd" d="M1857.08 66C1865.45 66 1873.19 68.7779 1879.25 74.835C1885.3 80.892 1888.08 88.6318 1888.08 97V304.48C1888.08 312.411 1889.59 317.881 1891.76 321.614L1891.97 321.956C1892.98 323.601 1893.77 324.271 1894.14 324.516C1894.41 324.698 1894.62 324.78 1895.08 324.78H1904.58C1912.72 324.78 1920.15 327.773 1925.66 334.075C1931.24 340.154 1933.68 347.731 1933.68 355.78C1933.68 365.176 1929.48 373.001 1922.28 378.587L1921.58 379.121C1914.2 384.556 1905.3 386.78 1895.84 386.78H1895.08C1882.03 386.78 1870.05 383.286 1859.53 376.164L1858.52 375.464C1848.04 368.07 1840.03 358.13 1834.41 346.006L1834.39 345.956L1834.37 345.906C1828.74 333.468 1826.08 319.576 1826.08 304.48V97C1826.08 88.6318 1828.86 80.892 1834.91 74.835L1835.49 74.2764C1841.46 68.607 1848.97 66.0001 1857.08 66Z" fill="#0795FF"/>
<defs>
<clipPath id="clip0_899_1398">
<rect width="512" height="512" fill="white"/>
</clipPath>
</defs>
</svg>
